<svg width="330" height="91" viewBox="0 0 330 91" fill="none" xmlns="http://www.w3.org/2000/svg">
<path d="M5.688 89C2.104 89 0.312 87.208 0.312 83.624V7.592C0.312 4.008 2.104 2.216 5.688 2.216C9.272 2.216 11.064 4.008 11.064 7.592V78.248H46.52C50.104 78.248 51.896 80.04 51.896 83.624C51.896 87.208 50.104 89 46.52 89H5.688ZM74.938 89C71.354 89 69.562 87.208 69.562 83.624V7.592C69.562 4.008 71.354 2.216 74.938 2.216H120.89C124.474 2.216 126.266 4.008 126.266 7.592C126.266 11.176 124.474 12.968 120.89 12.968H80.314V39.848H105.786C109.37 39.848 111.162 41.64 111.162 45.224C111.162 48.808 109.37 50.6 105.786 50.6H80.314V78.248H120.89C124.474 78.248 126.266 80.04 126.266 83.624C126.266 87.208 124.474 89 120.89 89H74.938ZM144.383 87.848C141.524 85.8853 141.098 83.368 143.103 80.296L166.527 45.736L141.823 10.92C139.903 8.104 140.372 5.58666 143.231 3.368C146.175 1.36266 148.65 1.83199 150.655 4.77599L173.567 36.904L196.607 4.77599C198.826 1.91733 201.3 1.53333 204.031 3.62399C206.932 5.75733 207.359 8.232 205.311 11.048L180.095 46.12L204.287 80.168C206.292 83.112 205.823 85.672 202.879 87.848C199.935 89.8533 197.46 89.384 195.455 86.44L173.183 55.08L151.935 86.568C149.972 89.3413 147.455 89.768 144.383 87.848ZM232.188 89C230.353 89 228.988 88.5733 228.092 87.72C227.239 86.824 226.812 85.4587 226.812 83.624V7.71999C226.812 5.84266 227.239 4.47733 228.092 3.62399C228.988 2.77066 230.353 2.34399 232.188 2.34399C234.065 2.34399 235.431 2.77066 236.284 3.62399C237.137 4.47733 237.564 5.84266 237.564 7.71999V83.624C237.564 85.4587 237.137 86.824 236.284 87.72C235.431 88.5733 234.065 89 232.188 89ZM285.883 89C278.587 89 272.891 87.528 268.795 84.584C264.742 81.64 262.203 77.096 261.179 70.952C261.008 69.0747 261.392 67.6667 262.331 66.728C263.27 65.7893 264.635 65.32 266.427 65.32C268.219 65.32 269.52 65.7467 270.331 66.6C271.184 67.4533 271.76 68.776 272.059 70.568C272.699 73.512 274.064 75.5387 276.155 76.648C278.288 77.7147 281.531 78.248 285.883 78.248H304.315C309.819 78.248 313.552 77.2667 315.515 75.304C317.52 73.2987 318.523 69.5867 318.523 64.168C318.523 58.664 317.499 54.9093 315.451 52.904C313.403 50.856 309.691 49.832 304.315 49.832H288.443C280.379 49.832 274.384 47.8693 270.459 43.944C266.576 39.976 264.635 33.96 264.635 25.896C264.635 17.8747 266.555 11.9227 270.395 8.03999C274.278 4.15733 280.251 2.216 288.315 2.216H303.547C310.331 2.216 315.643 3.60266 319.483 6.376C323.366 9.14933 325.819 13.3947 326.843 19.112C327.099 20.9467 326.758 22.3547 325.819 23.336C324.88 24.2747 323.472 24.744 321.595 24.744C319.888 24.744 318.608 24.296 317.755 23.4C316.902 22.504 316.347 21.2027 316.091 19.496C315.408 16.9787 314.107 15.272 312.187 14.376C310.267 13.4373 307.387 12.968 303.547 12.968H288.315C283.195 12.968 279.76 13.8853 278.011 15.72C276.262 17.512 275.387 20.904 275.387 25.896C275.387 30.9307 276.283 34.3867 278.075 36.264C279.867 38.1413 283.323 39.08 288.443 39.08H304.315C312.72 39.08 318.971 41.128 323.067 45.224C327.206 49.32 329.275 55.6347 329.275 64.168C329.275 72.6587 327.227 78.9307 323.131 82.984C319.035 86.9947 312.763 89 304.315 89H285.883Z" fill="white"/>
</svg>
